<?xml version="1.0" encoding="UTF-8"?>
<svg id="Layer_2" data-name="Layer 2" xmlns="http://www.w3.org/2000/svg" viewBox="0 0 900 449.68">
  <defs>
    <style>
      .cls-1 {
        fill: #fff;
      }

      .cls-2 {
        fill: #0085d1;
      }
    </style>
  </defs>
  <rect class="cls-2" width="900" height="449.68"/>
  <g id="CUo">
    <path class="cls-1" d="M361.93,269.59c-18.9,0-35.21-4.21-48.92-12.62-13.71-8.41-24.2-20.82-31.47-37.23-7.27-16.41-10.91-36.87-10.91-61.38s3.63-44.91,10.91-61.85c7.27-16.93,17.76-29.8,31.47-38.63,13.71-8.83,30.01-13.24,48.92-13.24s34.43,4.16,47.2,12.46c12.77,8.31,22.9,20.56,30.38,36.76l-29.6,16.2c-3.74-10.38-9.5-18.64-17.29-24.77-7.79-6.12-18.02-9.19-30.69-9.19-16.82,0-30.02,5.82-39.57,17.45-9.56,11.63-14.33,27.52-14.33,47.67v33.34c0,19.94,4.78,35.52,14.33,46.73,9.55,11.22,22.74,16.82,39.57,16.82,12.88,0,23.47-3.37,31.78-10.13,8.3-6.75,14.43-15.42,18.38-26.02l28.35,17.14c-7.27,15.58-17.5,27.89-30.69,36.92-13.19,9.04-29.13,13.55-47.83,13.55Z"/>
    <path class="cls-1" d="M473.16,48.38h34.58v133.97c0,12.26,1.5,22.54,4.52,30.84,3.01,8.31,7.94,14.54,14.8,18.69,6.85,4.16,15.89,6.23,27.11,6.23s20.51-2.07,27.26-6.23c6.75-4.15,11.68-10.38,14.8-18.69,3.12-8.31,4.67-18.59,4.67-30.84V48.38h34.58v128.36c0,21.19-2.65,38.63-7.95,52.34-5.3,13.71-13.92,23.89-25.86,30.53-11.95,6.65-27.88,9.97-47.83,9.97s-35.78-3.33-47.51-9.97c-11.74-6.65-20.2-16.82-25.39-30.53-5.19-13.71-7.79-31.16-7.79-52.34V48.38Z"/>
    <path class="cls-1" d="M763.23,269.59c-9.77,0-18.9-1.2-27.42-3.58-8.52-2.39-16.31-5.87-23.37-10.44l-17.76,25.86-22.43-14.64,20.25-29.29c-7.27-9.35-12.88-20.77-16.82-34.27-3.95-13.5-5.92-28.87-5.92-46.11,0-24.51,3.84-45.07,11.53-61.69,7.68-16.62,18.54-29.23,32.56-37.85,14.02-8.62,30.48-12.93,49.38-12.93,9.76,0,18.95,1.2,27.57,3.58,8.62,2.39,16.36,5.87,23.21,10.44l17.76-25.86,22.43,14.64-20.25,29.29c7.48,9.35,13.19,20.72,17.14,34.12,3.94,13.4,5.92,28.82,5.92,46.27,0,24.3-3.85,44.82-11.53,61.53-7.69,16.72-18.54,29.39-32.56,38.01-14.02,8.62-30.59,12.93-49.69,12.93ZM763.23,74.56c-11.43,0-21.4,2.6-29.91,7.79-8.52,5.19-15.17,12.67-19.94,22.43-4.78,9.77-7.17,21.29-7.17,34.58v35.52c0,6.23.62,12.26,1.87,18.07,1.25,5.82,2.91,11.01,4.99,15.58h.62l49.54-73.53,33.96-49.85c-4.57-3.53-9.71-6.18-15.42-7.95-5.72-1.76-11.89-2.65-18.54-2.65ZM763.23,239.68c11.63,0,21.7-2.65,30.22-7.94,8.51-5.3,15.16-12.77,19.94-22.43,4.78-9.66,7.17-21.13,7.17-34.43v-35.52c0-6.44-.68-12.51-2.02-18.23-1.35-5.71-3.07-10.85-5.14-15.42h-.62l-49.54,73.53-33.65,49.85c4.57,3.53,9.71,6.18,15.42,7.94,5.71,1.77,11.79,2.65,18.23,2.65Z"/>
  </g>
  <g id="kjunil">
    <path class="cls-1" d="M462.94,405.13c-.45.29-1.2.63-2.25,1.02s-2.12.75-3.2,1.09c-1.08.34-1.9.59-2.45.75l-2.13-1.6,33.97-89.47c.87-.55,2.15-1.08,3.83-1.6,1.68-.52,2.97-.89,3.88-1.11l2.18,1.41-33.83,89.52Z"/>
    <path class="cls-1" d="M514.19,351.34c-.48.26-1.44.49-2.86.7-1.42.21-2.5.32-3.25.32l-4.02-28.26c.35-.19,1.07-.5,2.13-.92,1.07-.42,2.23-.86,3.49-1.31,1.26-.45,2.42-.86,3.49-1.21,1.07-.36,1.76-.56,2.08-.63l2.47,1.36-3.54,29.95Z"/>
    <path class="cls-1" d="M525.26,391.76v-3.54c2.13-.55,3.74-1.03,4.82-1.45,1.08-.42,1.62-.92,1.62-1.5v-54.87c0-1.91-.15-3.28-.46-4.12-.31-.84-.91-1.4-1.82-1.67-.91-.27-2.29-.51-4.17-.7v-3.39c3.13-.45,6.03-.97,8.67-1.55,2.65-.58,5.06-1.36,7.22-2.33l2.18,1.99v66.64c0,.48.29.91.87,1.28.58.37,2.07.93,4.46,1.67v3.54h-23.41ZM576.35,350.22c-1.42.13-2.84.46-4.27.99-1.42.53-2.83,1.32-4.22,2.35l-18.66,14.15-6.3-1.45,13.18-11.78c1.39-1.26,2.15-2.2,2.28-2.81.13-.61-.16-1.01-.87-1.19-.71-.18-1.63-.27-2.76-.27v-3.54h21.62v3.54ZM578.04,390.16c-1.26.29-2.7.6-4.31.92-1.62.32-3.09.6-4.44.82s-2.24.34-2.69.34c-2.68,0-4.67-.86-5.96-2.57l-17.64-23.41,8.34-3.68,19.34,21.96c.9,1.07,1.84,1.71,2.81,1.94.97.23,2.39.28,4.27.15l.29,3.54Z"/>
    <path class="cls-1" d="M597.45,386.57c0,4.98-.56,8.97-1.67,11.97-1.12,3-2.52,5.4-4.22,7.2-1.7,1.79-3.4,3.35-5.11,4.68-1.75,1.36-3.81,2.56-6.2,3.61-2.39,1.05-4.47,1.58-6.25,1.58-1.68,0-3.39-.27-5.14-.8-1.74-.53-3.21-1.15-4.39-1.84-1.18-.7-1.77-1.28-1.77-1.77,0-.45.33-1.08.99-1.87.66-.79,1.48-1.61,2.45-2.45.97-.84,1.91-1.6,2.81-2.28s1.6-1.13,2.08-1.36c1.03,1.26,2.41,2.25,4.12,2.96,1.71.71,3.17,1.07,4.36,1.07,1.13,0,2.17-.45,3.13-1.36.95-.91,1.72-2.63,2.3-5.16.58-2.54.87-6.23.87-11.07v-29.32c0-2.2-.09-3.84-.27-4.94-.18-1.1-.72-1.86-1.62-2.28s-2.41-.76-4.51-1.02v-3.39c2.26-.32,4.18-.65,5.74-.97,1.57-.32,3.04-.69,4.41-1.09,1.37-.4,2.92-.88,4.63-1.43h3.25v41.34ZM599.44,330.64c0,2.17-.77,3.93-2.3,5.31-1.54,1.37-3.47,2.06-5.79,2.06-1.81,0-3.38-.44-4.7-1.31-1.33-.87-1.99-2.23-1.99-4.07,0-2.2.79-3.97,2.38-5.31,1.58-1.34,3.5-2.01,5.77-2.01,1.74,0,3.29.42,4.63,1.26,1.34.84,2.01,2.2,2.01,4.07Z"/>
    <path class="cls-1" d="M659.56,386.33c-1.58,1.04-3.35,2.08-5.31,3.15-1.96,1.07-3.74,1.96-5.36,2.67-1.62.71-2.68,1.07-3.2,1.07-1.16,0-2.23-.51-3.2-1.53-.97-1.02-1.65-3.19-2.04-6.52-2.68,2.33-5.01,4.06-6.98,5.21-1.97,1.15-3.72,1.91-5.24,2.28-1.52.37-2.97.56-4.36.56-2,0-3.94-.4-5.82-1.21-1.87-.81-3.42-2.29-4.63-4.46-1.21-2.16-1.82-5.27-1.82-9.31v-19.87c0-2.04-.09-3.51-.27-4.41s-.68-1.5-1.5-1.79c-.82-.29-2.19-.53-4.1-.73v-3.39c3.23-.29,6-.62,8.31-.99,2.31-.37,4.81-.98,7.49-1.82l1.7,2.23v27.72c0,4.01.48,6.62,1.45,7.83.97,1.21,2.36,1.82,4.17,1.82,1.36,0,2.96-.39,4.82-1.16,1.86-.78,4.11-2.31,6.76-4.6v-20.7c0-1.94-.12-3.38-.36-4.31-.24-.94-.82-1.58-1.72-1.94-.91-.36-2.34-.58-4.31-.68v-3.39c3.23-.29,6.16-.69,8.8-1.19,2.63-.5,5.11-1.04,7.44-1.62l1.79,2.23v30.53c0,1.97.08,3.35.24,4.14.16.79.45,1.35.87,1.67.36.29.89.36,1.6.19.71-.16,1.89-.6,3.54-1.31l1.21,3.63Z"/>
    <path class="cls-1" d="M672.53,364.28l-9.01-17.59h18.03l-9.01,17.59ZM672.53,374.11l9.01,17.64h-18.03l9.01-17.64Z"/>
    <path class="cls-1" d="M717.19,391.76v-3.54c2.33-.61,3.97-1.16,4.94-1.62.97-.47,1.45-.91,1.45-1.33v-22c0-3.55-.37-5.98-1.11-7.27-.74-1.29-2.07-1.94-3.97-1.94-1.55,0-3.34.46-5.36,1.38-2.02.92-4.6,2.71-7.73,5.36v24.48c0,1.07,2.15,2.05,6.45,2.96v3.54h-24.48v-3.54c4.27-1.13,6.4-2.12,6.4-2.96v-26.9c0-1.68-.1-2.92-.29-3.71-.19-.79-.74-1.35-1.62-1.67-.89-.32-2.38-.61-4.48-.87v-3.39c3.07-.32,5.79-.76,8.17-1.31s4.74-1.28,7.1-2.18l2.04,2.04.53,6.98c3.75-3.2,7.27-5.5,10.57-6.91,3.29-1.41,6.2-2.11,8.72-2.11,2.78,0,5.26.94,7.44,2.81,2.18,1.87,3.27,5.07,3.27,9.6v27.63c0,.42.44.86,1.31,1.31.87.45,2.58,1,5.14,1.65v3.54h-24.48Z"/>
    <path class="cls-1" d="M744.84,391.76v-3.54c4.52-.9,6.79-1.89,6.79-2.96v-32.08c0-.39-.54-.87-1.62-1.45-1.08-.58-2.8-1.08-5.16-1.5v-3.54h25.2v3.54c-4.52.91-6.79,1.89-6.79,2.96v32.08c0,.39.55.86,1.65,1.43s2.81,1.07,5.14,1.53v3.54h-25.2Z"/>
    <path class="cls-1" d="M774.76,391.76v-3.54c2.78-.48,4.62-.97,5.53-1.45.9-.48,1.36-.99,1.36-1.5v-54.87c0-1.91-.16-3.28-.49-4.12-.32-.84-.94-1.4-1.84-1.67-.9-.27-2.26-.51-4.07-.7v-3.39c3.23-.45,6.06-.95,8.48-1.5,2.42-.55,4.91-1.34,7.46-2.38l2.08,1.99v66.64c0,.48.49.99,1.48,1.5.98.52,2.8,1,5.45,1.45v3.54h-25.45Z"/>
    <path class="cls-1" d="M812.64,405.13c-.45.29-1.2.63-2.25,1.02-1.05.39-2.12.75-3.2,1.09-1.08.34-1.9.59-2.45.75l-2.13-1.6,33.98-89.47c.87-.55,2.15-1.08,3.83-1.6,1.68-.52,2.97-.89,3.88-1.11l2.18,1.41-33.83,89.52Z"/>
  </g>
</svg>