<?xml version="1.0" encoding="utf-8" ?>
<svg xmlns="http://www.w3.org/2000/svg" xmlns:xlink="http://www.w3.org/1999/xlink" width="1024" height="1024">
	<path fill="white" d="M0 0L1024 0L1024 1024L0 1024L0 0Z"/>
	<path fill="#010001" d="M645.15 843.064L646.326 843.312C646.936 843.838 647.198 843.861 647.364 844.693C648.976 852.731 638.887 872.694 634.278 879.433C621.648 897.899 601.575 909.81 579.701 913.771Q578.686 913.952 577.666 914.107Q576.646 914.263 575.623 914.393Q574.6 914.523 573.574 914.628Q572.548 914.733 571.519 914.812Q570.491 914.892 569.461 914.946Q568.431 915 567.4 915.029Q566.369 915.057 565.337 915.06Q564.306 915.064 563.275 915.041Q562.244 915.019 561.213 914.971Q560.183 914.923 559.154 914.85Q558.125 914.776 557.099 914.678Q556.072 914.579 555.048 914.455Q554.024 914.331 553.004 914.181Q551.983 914.032 550.966 913.857Q549.95 913.683 548.938 913.483Q547.926 913.284 546.919 913.059Q545.913 912.834 544.912 912.585Q543.911 912.336 542.917 912.062Q541.922 911.788 540.935 911.489Q539.948 911.191 538.968 910.868Q537.988 910.545 537.017 910.198Q536.046 909.851 535.083 909.48Q534.121 909.109 533.168 908.715Q532.215 908.32 531.272 907.902Q530.329 907.484 529.397 907.043Q528.464 906.602 527.543 906.138Q526.622 905.674 525.713 905.187Q524.803 904.7 523.906 904.191Q523.009 903.682 522.125 903.151Q521.241 902.62 520.37 902.067Q519.499 901.514 518.642 900.94Q517.785 900.366 516.943 899.771C500.479 888.333 488.962 869.593 485.473 849.939C485.268 848.547 484.825 846.609 485.45 845.28C485.777 844.584 486.168 844.69 486.843 844.503C489.132 848.345 489.614 854.903 490.868 859.311C492.743 865.903 496.754 873.113 500.572 878.753C511.881 895.453 530.771 907.116 550.5 910.874Q551.483 911.053 552.471 911.208Q553.458 911.364 554.45 911.494Q555.441 911.625 556.435 911.732Q557.429 911.838 558.425 911.92Q559.421 912.002 560.419 912.06Q561.417 912.117 562.416 912.15Q563.415 912.183 564.415 912.192Q565.415 912.2 566.414 912.184Q567.414 912.168 568.412 912.128Q569.411 912.087 570.409 912.022Q571.406 911.957 572.402 911.867Q573.398 911.778 574.391 911.664Q575.384 911.55 576.374 911.411Q577.364 911.273 578.35 911.11Q579.337 910.948 580.319 910.761Q581.301 910.574 582.278 910.363Q583.255 910.153 584.227 909.918Q585.198 909.683 586.164 909.424Q587.13 909.166 588.089 908.884Q589.048 908.601 590 908.296Q590.951 907.99 591.895 907.661Q592.839 907.332 593.775 906.98Q594.711 906.628 595.637 906.253Q596.564 905.878 597.481 905.481Q598.398 905.083 599.306 904.663Q600.213 904.244 601.109 903.801Q602.006 903.359 602.891 902.895Q603.777 902.431 604.651 901.946Q605.525 901.46 606.386 900.954Q607.248 900.447 608.097 899.919Q608.946 899.391 609.781 898.842Q610.617 898.294 611.439 897.725Q612.81 896.791 614.14 895.8Q615.471 894.81 616.758 893.764Q618.046 892.719 619.289 891.62Q620.531 890.521 621.727 889.371Q622.922 888.222 624.068 887.023Q625.214 885.823 626.309 884.578Q627.404 883.331 628.446 882.04Q629.487 880.75 630.474 879.416Q631.46 878.083 632.39 876.709Q633.319 875.335 634.19 873.924Q635.062 872.512 635.873 871.065Q636.684 869.618 637.434 868.139Q638.183 866.659 638.87 865.149Q639.557 863.64 640.18 862.103Q640.803 860.565 641.361 859.003Q641.919 857.441 642.411 855.857C643.685 851.663 644.325 847.358 645.15 843.064Z"/>
	<path fill="#010001" d="M146.698 819.501C121.513 792.229 110.63 743.614 112.05 707.192C112.866 686.24 117.21 664.616 125.845 645.432Q131.211 633.742 137.881 622.743C151.28 600.765 169.962 577.458 165.357 549.976C164.106 542.506 161.131 535.645 156.001 530.023C147.398 520.594 138.066 519.428 127.405 513.774C98.6236 498.512 88.3537 462.027 89.5856 431.49C90.5162 408.42 99.4526 382.39 116.785 366.436Q117.825 365.48 118.904 364.568Q119.982 363.656 121.098 362.79Q122.214 361.924 123.365 361.105Q124.516 360.286 125.701 359.517Q126.885 358.747 128.1 358.027Q129.316 357.307 130.56 356.639Q131.805 355.97 133.076 355.355Q134.347 354.739 135.643 354.177Q136.939 353.615 138.258 353.107Q139.576 352.6 140.914 352.148Q142.252 351.696 143.608 351.3Q144.964 350.904 146.336 350.566Q147.707 350.227 149.091 349.946Q150.476 349.665 151.871 349.442Q153.265 349.219 154.668 349.054Q156.071 348.89 157.48 348.784C166.865 348.163 175.604 348.445 184.898 346.329C236.566 334.563 270.569 295.7 272.883 242.415C274.393 207.632 266.159 167.617 294.975 141.228C317.492 120.608 351.921 118.219 381.075 119.701C397.758 120.549 414.251 123.213 430.552 126.769C455.171 132.14 476.239 138.222 501.794 138.264C554.92 138.352 604.302 93.2727 658.109 111.523C667.948 114.86 676.804 119.841 683.788 127.616C704.418 150.579 698.024 174.512 700.166 201.864C703.042 238.592 726.248 252.7 760.903 254.844C801.625 257.363 840.358 248.134 871.506 282.907C888.617 302.011 895.938 328.48 894.347 353.745C893.65 364.813 891.581 376.397 887.536 386.742C882.728 399.038 876.105 405.786 870.943 416.501C855.451 448.661 833.078 513.084 859.931 543.663C869.625 554.702 883.292 556.087 895.998 561.534C930.812 576.46 936.757 628.775 934.814 662.003C932.154 707.484 913.744 736.981 891.676 775.521L876.389 801.772C872.871 807.916 869.631 814.326 865.756 820.255C842.314 819.659 818.818 819.942 795.367 819.87L685.075 819.523L386.243 819.531L378.864 819.543L157.128 819.318L146.698 819.501Z"/>
	<path fill="#6BA1D5" d="M714.855 704.631Q715.905 704.534 716.96 704.525Q718.014 704.515 719.066 704.593Q720.118 704.671 721.159 704.835Q722.201 704.999 723.226 705.249Q724.25 705.498 725.251 705.832Q726.251 706.165 727.221 706.58Q728.19 706.995 729.122 707.489Q730.054 707.982 730.942 708.551Q731.512 708.916 732.063 709.31Q732.615 709.704 733.145 710.125Q733.675 710.547 734.184 710.994Q734.693 711.442 735.178 711.914Q735.663 712.387 736.124 712.884Q736.584 713.38 737.019 713.9Q737.454 714.419 737.862 714.96Q738.27 715.5 738.651 716.061Q739.031 716.622 739.382 717.201Q739.733 717.78 740.055 718.376Q740.376 718.972 740.667 719.584Q740.958 720.196 741.218 720.821Q741.478 721.447 741.705 722.085Q741.933 722.723 742.128 723.372Q742.323 724.02 742.485 724.678Q742.647 725.336 742.776 726.001Q742.902 726.679 742.993 727.364Q743.084 728.047 743.14 728.735Q743.196 729.423 743.218 730.113Q743.239 730.802 743.226 731.492Q743.212 732.182 743.164 732.87Q743.115 733.559 743.032 734.244Q742.948 734.929 742.83 735.609Q742.712 736.289 742.56 736.962Q742.408 737.635 742.222 738.299Q742.036 738.964 741.816 739.618Q741.597 740.272 741.344 740.914Q741.092 741.556 740.807 742.185Q740.522 742.813 740.206 743.427Q739.89 744.04 739.543 744.637Q739.197 745.233 738.82 745.811Q738.443 746.39 738.038 746.948C733.684 752.884 727.805 755.475 720.752 756.605C714.219 756.758 708.138 756.475 702.34 753.023C696.512 749.552 692.397 743.461 690.961 736.867C689.41 729.747 691.165 721.879 695.314 715.928C700.088 709.081 706.887 706.006 714.855 704.631Z"/>
	<path fill="#6BA1D5" d="M493.585 704.625C499.544 704.158 505.462 705.155 510.683 708.193Q511.239 708.515 511.779 708.864Q512.318 709.213 512.84 709.588Q513.361 709.964 513.863 710.365Q514.366 710.766 514.847 711.191Q515.329 711.617 515.788 712.066Q516.248 712.515 516.685 712.986Q517.121 713.458 517.534 713.95Q517.947 714.443 518.334 714.955Q518.722 715.468 519.083 715.999Q519.445 716.53 519.78 717.079Q520.114 717.627 520.421 718.192Q520.728 718.757 521.006 719.336Q521.285 719.915 521.534 720.507Q521.783 721.1 522.002 721.704Q522.221 722.308 522.41 722.922Q522.599 723.536 522.757 724.159C524.55 731.268 523.842 739.09 519.881 745.365C515.34 752.558 508.763 755.705 500.817 757.617C494.061 757.796 488.297 757.104 482.424 753.541Q481.836 753.182 481.268 752.793Q480.699 752.404 480.151 751.987Q479.603 751.569 479.078 751.124Q478.552 750.679 478.05 750.208Q477.547 749.736 477.07 749.24Q476.593 748.743 476.141 748.223Q475.69 747.702 475.266 747.159Q474.842 746.616 474.447 746.053Q474.051 745.489 473.685 744.905Q473.319 744.322 472.983 743.72Q472.647 743.119 472.343 742.501Q472.038 741.883 471.766 741.251Q471.493 740.618 471.254 739.972Q471.014 739.326 470.808 738.669Q470.602 738.012 470.43 737.345Q470.258 736.678 470.12 736.003C468.705 729.221 470.268 721.952 474.112 716.216C478.773 709.26 485.671 706.099 493.585 704.625Z"/>
	<path fill="#6BA1D5" d="M669.538 761.111Q671.337 761 673.139 760.933C690.269 760.354 707.605 760.979 724.752 760.961C735.801 760.95 755.054 759.666 765.366 761.903C769.177 762.729 772.708 764.826 775.483 767.532Q776.578 768.587 777.521 769.779Q778.464 770.972 779.237 772.281Q780.01 773.59 780.6 774.992Q781.19 776.393 781.585 777.861C783.914 786.391 782.705 807.26 782.801 816.928C776.636 816.458 770.43 816.55 764.25 816.514L649.346 816.334C649.322 806.792 648.245 787.96 650.003 779.518Q650.251 778.347 650.612 777.207Q650.974 776.066 651.446 774.966Q651.917 773.867 652.495 772.819Q653.073 771.771 653.751 770.785C657.61 765.187 663.026 762.399 669.538 761.111Z"/>
	<path fill="#6BA1D5" d="M522.168 761.262C533.803 760.948 547.517 759.139 556.642 768.037C564.528 775.729 563.358 787.459 563.365 797.509L563.352 816.414L468.75 816.434L428.043 816.384C428.017 805.885 426.664 787.014 429.34 777.465C430.335 773.914 432.239 770.748 434.794 768.1C437.551 765.242 440.837 763.313 444.703 762.398C454.204 760.15 465.713 761.412 475.428 761.446Q498.799 761.571 522.168 761.262Z"/>
	<path fill="white" d="M147.968 816.495C121.939 785.714 112.218 738.693 115.5 699.194C117.03 680.783 121.474 661.922 129.278 645.177C139.081 624.144 155.175 604.6 163.574 584.182C170.634 567.021 171.813 544.477 159.24 529.48C149.778 518.195 139.813 517.211 127.839 510.703C99.2912 495.184 90.3078 456.501 92.6482 426.446C94.2895 405.368 104.02 381.25 120.324 367.29Q121.32 366.44 122.348 365.63Q123.377 364.82 124.436 364.051Q125.496 363.281 126.585 362.554Q127.673 361.827 128.79 361.144Q129.907 360.46 131.049 359.821Q132.192 359.182 133.358 358.588Q134.525 357.994 135.714 357.446Q136.904 356.898 138.113 356.398Q139.323 355.897 140.552 355.445Q141.78 354.992 143.025 354.588Q144.271 354.184 145.531 353.829Q146.791 353.474 148.064 353.169Q149.338 352.864 150.622 352.609Q151.906 352.354 153.199 352.15Q154.492 351.946 155.793 351.792Q157.093 351.639 158.398 351.537C167.881 350.887 176.719 351.161 186.125 349.041C235.296 337.954 271.082 299.727 275.434 249.003C278.51 213.161 266.929 168.763 298.487 142.042C323.333 121.003 361.644 120.871 392.502 123.603C430.957 127.008 464.871 141.778 503.808 140.986Q507.95 140.914 512.078 140.572Q516.207 140.23 520.304 139.62Q524.401 139.009 528.45 138.134Q532.499 137.258 536.482 136.12C574.919 125.344 613.525 101.75 654.738 113.599C665.675 116.743 675.673 122.417 683.034 131.214C701.888 153.744 694.837 179.262 697.564 205.538C701.012 238.752 723.124 254.238 754.844 257.256C797.905 261.354 839.56 249.057 871.663 287.763C887.513 306.874 893.509 333.794 891.122 358.145C889.78 371.837 886.191 386.324 878.881 398.126C874.805 404.707 870.32 410.537 867.084 417.641C852.089 450.565 830.608 512.406 856.561 544.224C867.803 558.006 880.676 557.86 895.266 564.555C931.04 580.971 934.424 636.104 931.164 670.37C927.084 713.248 903.949 748.547 882.718 784.734Q877.431 793.642 872.312 802.647C869.594 807.524 867.13 812.73 863.932 817.308C838.201 817.484 812.227 817.84 786.505 817.191C786.462 807.443 787.523 785.797 785.283 777.233C784.142 772.871 781.997 768.745 778.817 765.518C770.452 757.029 759.296 757.497 748.312 757.516L730.293 757.576C738.067 752.489 743.752 746.837 745.726 737.403C747.39 729.444 746.08 721.165 741.458 714.385C737.036 707.9 729.785 703.13 722.016 701.898C714.085 700.641 705.531 702.611 699.092 707.444C692.667 712.267 688.501 719.828 687.516 727.777C686.521 735.808 688.871 743.631 693.87 749.937C696.577 753.352 699.767 755.663 703.632 757.653Q694.617 757.712 685.602 757.579C674.123 757.408 663.021 756.19 654.22 765.252Q653.567 765.925 652.96 766.641Q652.353 767.357 651.796 768.111Q651.238 768.866 650.733 769.656Q650.227 770.447 649.776 771.269Q649.324 772.091 648.929 772.942Q648.534 773.793 648.196 774.669Q647.859 775.544 647.581 776.44Q647.303 777.336 647.086 778.249C645.08 786.738 646.211 806.754 646.23 816.503L566.561 816.487L566.644 797.724C566.764 785.996 567.548 774.666 558.69 765.562C553.21 759.929 545.937 757.856 538.277 757.858C529.282 757.859 520.3 758.328 511.297 758.158C518.794 752.688 524.824 746.557 526.479 737.007C527.872 728.965 525.993 719.798 521.055 713.233Q520.596 712.615 520.106 712.022Q519.616 711.428 519.096 710.86Q518.577 710.292 518.029 709.751Q517.482 709.211 516.907 708.698Q516.333 708.186 515.733 707.703Q515.133 707.221 514.51 706.77Q513.887 706.318 513.241 705.899Q512.596 705.48 511.93 705.094Q511.264 704.708 510.579 704.357Q509.894 704.005 509.193 703.689Q508.491 703.373 507.774 703.093Q507.057 702.812 506.327 702.569Q505.597 702.326 504.855 702.12Q504.114 701.914 503.363 701.746Q502.611 701.577 501.853 701.448Q501.094 701.318 500.33 701.227C492.004 700.193 483.988 702.677 477.463 707.861C471.871 712.304 467.486 719.324 466.584 726.474Q466.482 727.242 466.42 728.014Q466.357 728.787 466.333 729.561Q466.309 730.336 466.324 731.11Q466.339 731.885 466.393 732.658Q466.448 733.431 466.541 734.2Q466.634 734.97 466.765 735.733Q466.897 736.497 467.067 737.253Q467.237 738.009 467.444 738.755Q467.652 739.502 467.897 740.237Q468.142 740.972 468.424 741.694Q468.705 742.416 469.023 743.122Q469.341 743.829 469.694 744.519Q470.047 745.209 470.434 745.88Q470.821 746.551 471.241 747.202Q471.662 747.853 472.115 748.482Q472.567 749.111 473.051 749.716C475.922 753.242 479.465 755.879 483.243 758.358C473.556 758.082 453.399 756.755 444.725 758.785C440.31 759.817 436.043 761.864 432.769 765.041C424.028 773.523 424.962 785.3 424.995 796.382L425.081 816.492C415.996 816.505 406.869 816.334 397.789 816.624L374.497 816.513Q357.035 816.082 339.571 816.415L309.944 816.417Q293.23 816.266 276.516 816.48L271.326 816.505L190.906 816.49C176.633 816.514 162.228 816.951 147.968 816.495Z"/>
	<path fill="#4567B2" d="M397.092 181.01C391.595 180.98 385.97 181.356 380.493 180.977C379.762 180.926 380.139 181.04 379.464 180.268L379.882 179.27C384.414 178.455 389.598 178.982 394.215 179.027C395.261 179.627 396.217 180.165 397.092 181.01Z"/>
	<path fill="#6BA1D5" d="M398.272 178.645C398.382 174.08 397.009 162.83 399.384 159.159L400.111 159.162C401.689 163.848 400.694 173.45 400.696 178.687C400.983 178.739 401.27 178.795 401.557 178.843C406.696 179.709 415.281 177.696 419.697 179.761L419.585 180.378C418.431 181.01 417.864 181.009 416.561 181.009L400.524 181.172C400.531 186.681 401.86 195.649 399.47 200.464L398.819 200.601C397.218 197.568 398.154 185.517 398.17 181.353L397.092 181.01C396.217 180.165 395.261 179.627 394.215 179.027C395.577 178.98 396.92 178.8 398.272 178.645Z"/>
	<path fill="#6BA1D5" d="M525.315 205.157C542.14 204.811 559.027 205.009 575.857 205.021C583.674 205.027 592.072 204.298 599.801 204.973C600.438 205.029 600.794 205.208 601.288 205.6L601.366 207.008Q574.82 206.822 548.274 207.098C544.206 207.142 529.851 207.995 526.674 207.364C526.259 207.282 525.948 206.932 525.585 206.716L525.315 205.157Z"/>
	<path fill="#6BA1D5" d="M490.638 632.107C504.687 631.888 519.217 631.453 533.238 632.248L533.739 632.907L534.036 632.861C527.371 635.232 514.527 634.196 507.419 633.933C500.601 634.353 450.592 634.733 447.643 633.197L447.754 632.417C450.719 631.081 484.279 632.033 490.638 632.107Z"/>
	<path fill="#6BA1D5" d="M447.073 642.705C452.412 641.919 531.64 642.158 533.546 642.743C534.48 643.029 534.447 643.462 534.901 644.276C534.341 644.399 534.186 644.447 533.539 644.505C526.557 645.132 449.764 644.68 448.547 643.962C447.991 643.634 447.564 643.124 447.073 642.705Z"/>
	<path fill="#6BA1D5" d="M525.356 193.52C533.358 193.424 598.746 192.65 601.229 194.048L601.342 195.605C594.26 196.064 527.693 196.533 525.79 195.537L525.356 193.52Z"/>
	<path fill="#EE5F59" d="M525.737 181.007L582.834 181.274C586.817 181.291 597.124 180.549 600.332 181.357C600.746 181.461 601.061 181.802 601.426 182.024L601.427 183.572C576.764 184.386 551.725 184.111 527.037 183.807C525.932 183.006 526.047 182.284 525.737 181.007Z"/>
	<path fill="#6BA1D5" d="M837.249 650.93C837.404 647.142 836.818 632.299 838.049 630.238L838.583 629.933C839.693 630.993 839.672 632.435 839.705 633.944C839.833 639.672 839.491 645.422 839.56 651.159C843.902 651.056 859.106 650.087 862.12 651.671L862.745 652.577C859.679 654.644 844.03 653.532 839.514 653.51C839.522 657.769 840.304 673.365 839.086 676.292L838.247 676.503C835.118 672.968 840.134 655.28 835.969 652.896C831.438 653.222 818.991 654.095 815.398 652.123C818.92 649.989 830.678 650.995 835.05 651.044L837.249 650.93Z"/>
	<path fill="#EE5F59" d="M146.371 459.171C144.924 459.186 144.239 459.328 142.949 458.63C142.781 458.064 142.732 457.62 142.856 457.035C143.63 453.385 168.669 408.895 171.273 407.313C172.042 406.846 172.17 407.074 172.988 407.259L173.784 408.523C177.893 414.613 200.18 452.637 201.639 457.926C201.026 458.783 200.839 458.955 199.74 459.183C197.936 459.556 195.668 459.328 193.845 459.208C195.744 458.38 197.667 458.234 199.701 457.992C198.608 457.897 197.574 457.809 196.51 457.516C196.291 457.456 196.076 457.381 195.859 457.314C196.929 456.91 197.15 457.013 197.824 456.032C196.101 451.931 193.62 448.016 191.442 444.136C185.136 432.901 177.949 421.901 172.285 410.345C165.743 420.465 159.946 431.158 154.025 441.656C151.453 446.216 148.017 451.05 146.308 455.997C146.405 456.317 146.445 456.671 146.634 456.948L146.371 459.171Z"/>
	<path fill="#EE5F59" d="M795.795 313.249C801.968 313.43 840.032 312.492 842.509 313.608C842.833 313.754 843.052 314.066 843.323 314.295C844.405 316.974 844.026 320.198 843.964 323.049L844.128 350.843C844.143 355.976 844.457 361.316 843.854 366.415C842.282 367.799 840.676 367.521 838.684 367.395L838.854 366.746C839.751 366.684 840.605 366.587 841.49 366.425L841.86 365.569Q842.197 341.7 841.912 317.831C841.724 316.982 841.494 316.473 841.008 315.752C836.974 315.169 798.097 314.853 794.813 315.905C795.299 325.836 794.954 335.889 794.918 345.833C794.894 352.347 795.347 359.305 794.698 365.759C795.698 366.555 796.432 367.066 797.647 367.527C795.8 367.552 794.248 367.749 792.745 366.568C791.792 359.922 792.647 352.403 792.654 345.644C792.664 336.397 792.048 326.88 792.588 317.666C792.677 316.139 792.613 314.929 793.503 313.647L795.795 313.249Z"/>
	<path fill="white" d="M146.634 456.948C146.445 456.671 146.405 456.317 146.308 455.997C148.017 451.05 151.453 446.216 154.025 441.656C159.946 431.158 165.743 420.465 172.285 410.345C177.949 421.901 185.136 432.901 191.442 444.136C193.62 448.016 196.101 451.931 197.824 456.032C197.15 457.013 196.929 456.91 195.859 457.314C196.076 457.381 196.291 457.456 196.51 457.516C197.574 457.809 198.608 457.897 199.701 457.992C197.667 458.234 195.744 458.38 193.845 459.208Q170.108 458.884 146.371 459.171L146.634 456.948Z"/>
	<path fill="#C53E2A" d="M146.634 456.948L177.973 456.924C183.561 456.907 190.483 456.103 195.859 457.314C196.076 457.381 196.291 457.456 196.51 457.516C197.574 457.809 198.608 457.897 199.701 457.992C197.667 458.234 195.744 458.38 193.845 459.208Q170.108 458.884 146.371 459.171L146.634 456.948Z"/>
	<path fill="#6BA1D5" d="M237.913 354.24C244.086 352.673 250.11 352.763 255.776 356.002Q256.255 356.279 256.72 356.578Q257.185 356.877 257.636 357.198Q258.086 357.519 258.52 357.862Q258.954 358.205 259.372 358.568Q259.789 358.931 260.188 359.314Q260.587 359.696 260.968 360.098Q261.348 360.499 261.709 360.919Q262.07 361.338 262.41 361.774Q262.75 362.21 263.068 362.663Q263.387 363.115 263.683 363.581Q263.98 364.048 264.254 364.529Q264.527 365.01 264.778 365.503Q265.028 365.996 265.254 366.501Q265.48 367.006 265.682 367.521Q265.884 368.036 266.06 368.56Q266.237 369.084 266.388 369.616C268.026 375.586 267.144 382.38 263.96 387.7Q263.662 388.192 263.339 388.668Q263.017 389.145 262.67 389.604Q262.323 390.063 261.954 390.504Q261.584 390.944 261.192 391.366Q260.8 391.787 260.387 392.188Q259.974 392.588 259.541 392.967Q259.109 393.346 258.657 393.702Q258.205 394.058 257.736 394.391Q257.266 394.724 256.78 395.032Q256.295 395.34 255.794 395.623Q255.293 395.906 254.778 396.162Q254.263 396.419 253.736 396.649Q253.209 396.879 252.67 397.082Q252.132 397.285 251.584 397.46Q251.036 397.635 250.479 397.781Q249.923 397.928 249.36 398.046C243.25 399.356 237.258 398.293 232.121 394.708C228.865 392.436 226.45 389.598 224.658 386.074C224.146 385.248 223.776 384.491 223.428 383.578C221.233 377.828 221.072 371.737 223.706 366.084C226.576 359.924 231.737 356.491 237.913 354.24Z"/>
	<path fill="white" d="M239.011 355.761C245.067 354.478 249.966 354.837 255.34 358.209C260.285 361.311 264.127 365.738 265.278 371.582C266.313 376.834 265.001 382.384 261.984 386.774C258.694 391.561 253.38 395.233 247.641 396.311Q247.159 396.404 246.672 396.473Q246.186 396.542 245.697 396.586Q245.207 396.63 244.717 396.649Q244.226 396.668 243.735 396.662Q243.243 396.656 242.753 396.625Q242.263 396.595 241.775 396.539Q241.287 396.484 240.802 396.404Q240.318 396.323 239.838 396.219Q239.358 396.114 238.884 395.985Q238.41 395.857 237.943 395.704Q237.476 395.551 237.017 395.375Q236.559 395.199 236.11 395Q235.661 394.801 235.222 394.579Q234.784 394.357 234.358 394.114Q233.931 393.87 233.517 393.605Q233.104 393.34 232.704 393.055C229.929 391.066 227.894 388.677 226.1 385.798C225.92 385.359 225.747 384.916 225.589 384.468C223.488 378.502 223.135 372.025 226.048 366.239C228.794 360.783 233.402 357.724 239.011 355.761Z"/>
	<path fill="#EE5F59" d="M610.877 644.983C615.101 637.66 624.567 618.639 629.351 613.443C630.014 612.723 629.876 612.672 630.885 612.622C635.216 618.701 638.426 626.247 641.897 632.883C645.013 637.813 653.603 651.927 655.203 657.006Q657.641 661.052 659.955 665.17C660.058 665.956 660.012 666.455 659.906 667.23C656.666 668.548 605.212 667.903 598.244 667.446C601.898 659.769 606.844 652.514 610.877 644.983Z"/>
	<path fill="white" d="M629.664 616.18C634.249 621.32 637.447 628.921 640.749 634.986C644.316 642.025 651.366 656.812 655.855 662.417C656.073 663.397 656.304 664.362 656.582 665.327C638.395 665.71 620.086 665.588 601.896 665.336C605.15 659.138 608.905 653.164 612.288 647.025C618.88 637.462 623.729 626.218 629.664 616.18Z"/>
	<path fill="#6BA1D5" d="M538.683 708.827C542.171 703.599 547.2 699.267 553.47 697.868C560.122 696.384 567.743 697.499 573.412 701.319Q573.904 701.656 574.379 702.018Q574.853 702.379 575.309 702.764Q575.766 703.149 576.202 703.555Q576.638 703.962 577.054 704.39Q577.47 704.818 577.864 705.266Q578.258 705.714 578.629 706.182Q579 706.649 579.348 707.134Q579.695 707.619 580.018 708.12Q580.341 708.622 580.639 709.139Q580.936 709.656 581.208 710.187Q581.48 710.719 581.725 711.263Q581.97 711.807 582.187 712.362Q582.405 712.918 582.594 713.483Q582.784 714.049 582.946 714.624Q583.107 715.198 583.24 715.78Q583.372 716.361 583.476 716.949Q583.582 717.579 583.656 718.214Q583.731 718.849 583.774 719.486Q583.817 720.124 583.828 720.763Q583.84 721.402 583.82 722.04Q583.8 722.679 583.749 723.316Q583.697 723.953 583.615 724.587Q583.532 725.22 583.418 725.849Q583.304 726.478 583.159 727.1Q583.014 727.723 582.839 728.337Q582.664 728.952 582.458 729.557Q582.253 730.162 582.018 730.757Q581.783 731.351 581.519 731.933Q581.255 732.515 580.963 733.083Q580.671 733.651 580.351 734.204Q580.031 734.758 579.684 735.294Q579.337 735.831 578.964 736.35Q578.596 736.862 578.202 737.354Q577.809 737.846 577.39 738.318Q576.972 738.79 576.53 739.239Q576.089 739.689 575.625 740.116Q575.16 740.542 574.675 740.945Q574.19 741.347 573.685 741.724Q573.18 742.101 572.656 742.452Q572.132 742.803 571.591 743.126Q571.05 743.45 570.493 743.746Q569.937 744.041 569.366 744.308Q568.794 744.575 568.21 744.812Q567.626 745.05 567.031 745.257Q566.436 745.464 565.831 745.641Q565.226 745.818 564.612 745.963Q563.999 746.109 563.379 746.223Q562.759 746.337 562.134 746.419C555.408 747.309 548.608 745.043 543.377 740.785C542.447 740.028 541.472 739.163 540.797 738.168C538.136 735.503 536.305 731.73 535.445 728.094Q535.297 727.484 535.18 726.867Q535.063 726.251 534.977 725.629Q534.892 725.007 534.838 724.382Q534.784 723.757 534.761 723.129Q534.739 722.502 534.748 721.875Q534.757 721.247 534.798 720.621Q534.839 719.994 534.912 719.371Q534.985 718.748 535.089 718.129Q535.193 717.51 535.328 716.897Q535.463 716.284 535.629 715.678Q535.795 715.073 535.991 714.477Q536.188 713.881 536.414 713.295Q536.64 712.71 536.896 712.137Q537.151 711.563 537.435 711.004Q537.72 710.444 538.032 709.9Q538.344 709.355 538.683 708.827Z"/>
	<path fill="white" d="M539.637 710.068C543.962 704.394 549.067 700.263 556.396 699.328C562.558 698.542 569.253 700.357 574.071 704.301Q574.497 704.652 574.905 705.024Q575.312 705.396 575.701 705.788Q576.089 706.18 576.457 706.591Q576.826 707.002 577.173 707.431Q577.52 707.86 577.845 708.306Q578.17 708.752 578.472 709.214Q578.775 709.676 579.053 710.153Q579.332 710.629 579.586 711.119Q579.841 711.609 580.07 712.11Q580.299 712.612 580.503 713.125Q580.707 713.638 580.885 714.161Q581.063 714.683 581.214 715.214Q581.365 715.745 581.49 716.282Q581.614 716.82 581.711 717.363Q581.808 717.907 581.878 718.454Q581.948 719.002 581.99 719.552C582.532 725.999 580.185 732.117 576.001 736.985C571.967 741.677 566.291 744.734 560.047 744.944C553.593 745.161 547.722 742.062 543.167 737.689C542.296 736.853 541.502 735.924 540.714 735.012C539.607 733.172 538.551 731.349 537.83 729.315C535.412 722.486 536.55 716.412 539.637 710.068Z"/>
	<path fill="white" d="M794.813 315.905C798.097 314.853 836.974 315.169 841.008 315.752C841.494 316.473 841.724 316.982 841.912 317.831Q842.197 341.7 841.86 365.569L841.49 366.425C840.605 366.587 839.751 366.684 838.854 366.746L838.684 367.395C825.016 367.67 811.319 367.515 797.647 367.527C796.432 367.066 795.698 366.555 794.698 365.759C795.347 359.305 794.894 352.347 794.918 345.833C794.954 335.889 795.299 325.836 794.813 315.905Z"/>
	<path fill="#C53E2A" d="M794.698 365.759C799.6 364.901 805.479 365.455 810.461 365.456Q826.161 365.411 841.86 365.569L841.49 366.425C840.605 366.587 839.751 366.684 838.854 366.746L838.684 367.395C825.016 367.67 811.319 367.515 797.647 367.527C796.432 367.066 795.698 366.555 794.698 365.759Z"/>
	<path fill="#EE5F59" d="M178.947 666.387C179.689 665.495 179.862 665.601 180.975 665.49C188.285 664.761 196.374 665.417 203.769 665.418C210.805 665.419 218.378 664.828 225.354 665.424C226.909 665.556 227.993 665.898 229.341 666.666C230.086 667.531 230.535 668.276 230.656 669.441C231.051 673.257 230.351 677.646 230.349 681.548L230.467 715.024C214.194 715.022 197.466 715.839 181.236 714.87C180.1 714.925 179.987 715.09 178.971 714.469C177.808 710.416 178.912 673.874 178.947 666.387Z"/>
	<path fill="#C53E2A" d="M178.947 666.387C179.329 666.825 179.802 667.199 180.095 667.702C182.401 671.668 178.533 705.016 180.616 712.906C189.194 712.933 202.144 712.056 210.344 712.916C214.011 713.233 217.68 713.281 221.358 713.355C213.072 713.754 204.655 713.676 196.356 713.653C191.667 713.639 186.785 713.317 182.126 713.879C186.956 713.947 220.66 713.582 221.98 713.999C216.502 715.933 189.298 713.574 181.236 714.87C180.1 714.925 179.987 715.09 178.971 714.469C177.808 710.416 178.912 673.874 178.947 666.387Z"/>
	<path fill="white" d="M180.982 667.845C196.523 667.744 212.522 666.92 228.01 667.847L228.033 712.55C222.269 712.619 216.043 712.241 210.344 712.916C202.144 712.056 189.194 712.933 180.616 712.906C181.414 707.506 181.003 701.685 181.003 696.222L180.982 667.845Z"/>
	<path fill="#EE5F59" d="M283.256 627.796C294.292 628.49 305.481 628.204 316.54 628.185L366.342 627.985C366.28 633.838 365.507 639.651 365.455 645.485C365.195 646.745 365.137 647.657 365.291 648.935C365.39 668.89 367.215 688.996 368.527 708.909Q370.693 743.202 372.471 777.517C373.208 790.427 374.532 803.6 374.497 816.513Q357.035 816.082 339.571 816.415L309.944 816.417Q293.23 816.266 276.516 816.48C276.45 810.78 277.105 804.954 277.32 799.243L278.88 758.843Q281.77 703.408 282.292 647.901C282.411 646.604 282.327 645.669 282.089 644.409C282.356 642.07 282.253 639.506 281.97 637.18Q282.56 632.481 283.256 627.796Z"/>
	<path fill="white" d="M309.944 816.417C312.662 796.627 314.205 776.614 315.975 756.723Q318.18 732.496 320.707 708.3Q321.78 697.879 322.624 687.437C323.064 681.939 323.113 676.014 324.521 670.665Q329.208 721.141 335.05 771.496C336.633 786.266 339.314 801.598 339.571 816.415L309.944 816.417Z"/>
	<path fill="#010001" d="M300.505 264.746C328.337 264.039 356.3 264.588 384.149 264.572L543.055 264.527L667.337 264.54C688.293 264.541 709.529 263.768 730.444 264.618L730.491 560.545C734.974 560.47 743.125 559.359 746.47 562.822C747.521 563.91 747.997 565.322 747.859 566.828C747.709 568.463 746.583 569.988 745.288 570.923C743.597 572.144 741.424 572.606 739.375 572.714C735.913 572.897 732.397 572.533 728.924 572.523L702.027 572.505L616.886 572.512L480.639 572.551C457.644 572.592 434.599 573.084 411.611 572.757C404.995 578.624 395.483 589.971 389.083 594.213C386.428 595.972 383.388 597.24 380.148 597.089C376.614 596.924 373.492 595.071 371.251 592.397C368.383 588.975 367.245 584.836 365.456 580.838C365.767 604.005 371.206 626.11 373.677 649.002L365.291 648.935C365.137 647.657 365.195 646.745 365.455 645.485C365.507 639.651 366.28 633.838 366.342 627.985L316.54 628.185C305.481 628.204 294.292 628.49 283.256 627.796Q282.56 632.481 281.97 637.18C282.253 639.506 282.356 642.07 282.089 644.409C282.327 645.669 282.411 646.604 282.292 647.901C277.983 648.153 273.617 648.565 269.303 648.374C265.889 651.382 262.928 653.078 258.247 652.691C254.766 652.402 251.702 650.64 249.594 647.864C247.297 644.84 246.885 641.739 247.487 638.069C248.587 631.359 250.952 624.635 252.774 618.072C257.176 602.219 262.128 586.256 265.948 570.275C261.738 570.341 257.682 570.653 254.356 567.515C253.466 566.675 252.606 565.4 252.579 564.138C252.547 562.638 253.617 561.213 254.707 560.292C258.602 557 264.871 557.661 269.652 557.76C274.758 540.196 279.785 522.498 287.138 505.711C289.114 501.199 291.361 496.71 293.842 492.459C296.763 487.453 300.954 482.329 302.299 476.629C304.116 468.93 300.511 461.617 300.549 453.951L300.464 319.96C300.461 301.578 300.104 283.121 300.505 264.746Z"/>
	<path fill="white" d="M257.104 561.062C260.854 560.855 264.613 560.915 268.367 560.929L267.025 567.29C264.681 567.347 262.09 567.577 259.776 567.196C258.186 566.933 257.471 566.34 256.568 565.061C256.369 563.471 256.57 562.563 257.104 561.062Z"/>
	<path fill="white" d="M283.043 602.825C282.645 607.529 278.992 633.602 279.833 635.838C280.065 636.454 281.382 636.883 281.97 637.18C282.253 639.506 282.356 642.07 282.089 644.409C278.542 644.587 275.007 644.573 271.456 644.552C274.706 630.749 278.348 616.184 283.043 602.825Z"/>
	<path fill="white" d="M420.829 563.467C430.28 564.287 440.225 563.78 449.735 563.816L504.89 563.947L666.841 563.977L718.607 563.749C726.154 563.756 734.257 563.189 741.747 563.963C743.129 564.106 743.46 564.298 744.356 565.349C744.391 566.571 744.172 567.565 743.303 568.503C742.289 569.596 740.942 569.452 739.583 569.579L521.471 569.576C485.914 569.582 450.305 570.123 414.757 569.714C416.614 567.478 418.747 565.492 420.829 563.467Z"/>
	<path fill="white" d="M289.897 507.369C291.047 513.053 292.925 518.334 297.911 521.817C300.552 523.662 303.636 524.644 306.816 525.025C312.477 525.702 318.916 524.61 324.65 524.532C331.92 524.434 340.151 525.915 347.217 524.37C352.01 523.323 356.038 520.546 358.531 516.295C360.726 512.554 361.441 508.429 361.655 504.161C368.358 517.858 373.225 532.323 378.262 546.694C380.844 554.06 383.884 561.543 385.799 569.108C385.948 569.005 386.098 568.905 386.246 568.799C393.15 563.865 405.539 550.385 412.249 543.786C414.699 541.376 417.159 538.483 420.017 536.577C422.463 534.945 425.662 533.883 428.614 534.368C430.17 534.623 431.782 535.421 432.685 536.763C434.113 538.882 434.167 541.53 433.549 543.945C432.878 546.565 431.275 548.849 429.521 550.86C423.021 558.313 414.897 564.807 407.738 571.664C401.848 577.305 396.417 583.574 390.426 589.048C389.08 590.277 387.597 591.438 385.996 592.315C383.605 593.624 380.835 594.347 378.156 593.545C375.236 592.671 373.2 590.173 371.885 587.543C369.603 582.978 367.792 577.024 364.197 573.363L363.307 573.267C358.545 581.753 370.391 643.557 369.613 644.827C369.478 645.047 369.21 645.152 369.009 645.315Q367.233 645.413 365.455 645.485C365.507 639.651 366.28 633.838 366.342 627.985L316.54 628.185C305.481 628.204 294.292 628.49 283.256 627.796C285.426 612.736 287.634 596.988 285.739 581.789L285.455 582.444C283.142 587.886 281.826 594.004 280.233 599.708Q276.209 614.009 272.34 628.353C271.092 633.108 270.349 638.606 268.324 643.051C267.236 645.44 265.53 647.759 263.035 648.799C260.474 649.866 257.286 649.674 254.817 648.44C252.876 647.47 251.267 645.838 250.746 643.686C250.226 641.541 250.657 639.02 251.071 636.875C253.72 623.139 258.355 609.24 262.126 595.74C267.905 575.056 273.418 554.155 280.046 533.723Q284.311 520.299 289.897 507.369Z"/>
	<path fill="white" d="M303.072 267.514L727.48 267.819L727.553 560.505C712.076 560.542 696.577 560.395 681.104 560.622C664.804 562.03 644.456 561.125 627.688 561.14L580.821 560.949C571.33 560.895 561.769 561.094 552.292 560.606C509.68 560.609 466.947 561.267 424.349 560.579C429.244 555.381 437.384 549.592 437.118 541.728C437.018 538.766 435.696 536.517 434.137 534.086Q445.362 516.183 456.212 498.051C459.148 493.188 463.298 487.789 465.321 482.534L464.667 481.604C463.923 481.489 463.649 481.264 462.974 481.729C459.973 483.794 437.332 524.299 431.387 532.031C428.232 531.364 424.998 531.406 421.788 531.579C412.179 537.274 396.859 554.981 387.623 563.336C380.321 544.51 374.728 525.002 366.322 506.587C364.005 501.512 361.058 496.504 358.118 491.763C355.576 487.662 352.144 483.37 350.747 478.712C347.609 468.247 356.143 458.552 351.596 446.796C349.19 440.578 344.025 434.921 337.857 432.352C331.553 429.726 323.79 429.678 317.494 432.345C310.835 435.166 307.074 440.247 303.532 446.225L303.072 267.514Z"/>
	<path fill="#6BA1D5" d="M434.426 367.894C432.627 367.676 431.156 367.279 429.967 365.791C428.551 364.019 428.515 361.717 428.89 359.585C429.839 354.195 444.205 329.605 448.514 327.443C449.572 326.913 451.204 327.017 452.314 327.39C456.868 328.918 468.779 352.046 471.532 357.203C472.44 359.481 473.113 361.896 471.999 364.25C471.255 365.822 469.895 366.795 468.243 367.228C467.987 367.295 467.728 367.352 467.471 367.414C458.073 368.182 443.601 368.881 434.426 367.894Z"/>
	<path fill="white" d="M435.671 366.06C434.44 365.703 432.907 365.315 431.906 364.494C431.06 363.801 430.49 362.536 430.533 361.44C430.712 356.884 445.177 332.702 448.989 330.168C449.539 329.802 450.5 329.27 451.155 329.476C455.109 330.716 466.636 352.724 469.484 357.516C469.942 359.423 470.851 361.931 469.606 363.731C468.658 365.102 466.731 365.517 465.212 365.857C455.402 366.509 445.489 365.51 435.671 366.06Z"/>
	<path fill="#6BA1D5" d="M466.573 419.221C465.649 419.337 464.755 419.434 463.822 419.41C461.567 419.35 459.077 418.808 457.509 417.054C456.216 415.607 455.747 413.623 455.85 411.721C456.166 405.909 470.929 382.168 475.734 378.152C476.574 377.45 477.886 377.178 478.964 377.34C481.99 377.797 483.42 380.497 484.957 382.818C488.559 388.712 502.293 408.341 500.863 414.26C500.443 416.002 499.27 417.538 497.603 418.278C496.902 418.59 496.747 418.599 496.07 418.761C486.698 420.476 476.174 418.403 466.573 419.221Z"/>
	<path fill="white" d="M462.617 417.343C461.214 416.848 459.871 416.399 458.862 415.234C457.975 414.208 457.693 412.909 457.847 411.592C458.046 409.878 458.707 408.242 459.489 406.719C461.203 403.379 474.22 381.447 476.804 379.856C478.05 379.089 478.341 379.273 479.678 379.596C481.323 380.846 482.174 382.529 483.193 384.278C486.74 390.548 499.033 408.171 498.372 414.171C497.47 415.556 496.755 416.12 495.121 416.512C485.665 418.782 472.585 415.766 462.617 417.343Z"/>
	<path fill="#6BA1D5" d="M420.019 377.497C421.03 376.683 421.941 376.266 423.26 376.371C424.839 376.497 425.917 377.169 427.121 378.126C429.851 381.18 443.41 404.865 445.171 409.096C445.885 410.809 446.104 412.335 446.108 414.179C445.087 416.12 444.295 417.756 442.16 418.657C438.454 420.221 406.727 420.066 403.258 418.444C402.61 418.141 402.075 417.717 401.512 417.283Q400.862 416.574 400.389 415.737Q399.916 414.9 399.644 413.978C398.807 411.147 400.168 408.687 401.584 406.335C405.523 400.167 415.619 380.88 420.019 377.497Z"/>
	<path fill="white" d="M422.415 378.334L424.903 379.165C427.942 382.07 443.462 409.651 444.458 413.63C443.539 415.139 442.862 416.42 440.982 416.808C436.193 417.796 407.601 417.769 403.516 416.167C402.867 415.263 402.071 414.249 401.811 413.148C401.203 410.568 402.631 408.68 403.806 406.498C409.108 401.985 415.212 384.745 422.415 378.334Z"/>
	<path fill="#EE5F59" d="M595.755 487.027C608.949 486.506 622.116 486.561 635.315 486.454C635.229 498.215 634.977 510.001 635.324 521.758L676.171 521.782L676.351 545.629C676.38 550.372 676.082 555.355 676.745 560.053C678.245 560.517 679.539 560.591 681.104 560.622C664.804 562.03 644.456 561.125 627.688 561.14L580.821 560.949C571.33 560.895 561.769 561.094 552.292 560.606C566.595 560.135 581.171 560.378 595.482 560.686Q595.706 537.951 595.561 515.216C595.537 505.86 595.255 496.368 595.755 487.027Z"/>
</svg>
